<?xml version="1.0" encoding="UTF-8"?>
<svg id="_レイヤー_1" data-name="レイヤー 1" xmlns="http://www.w3.org/2000/svg" viewBox="0 0 500 500">
  <defs>
    <style>
      .cls-1 {
        fill: #fff;
        stroke-width: 0px;
      }
    </style>
  </defs>
  <path class="cls-1" d="m160.38,332.33c-.88-12.22,7.86-22.35,15.71-30.68,4.26-4.52,8.64-9.03,13.65-12.74,2.54-1.88,5.23-3.57,8.08-4.95.25-.12.51-.26.77-.36.85-.32.21.12.02-.27.19.39.5.8.71,1.18.96,1.73,1.92,3.47,2.88,5.2,4,7.23,8,14.45,12,21.68,1.56,2.82,5.88.3,4.32-2.52-3.92-7.08-7.84-14.16-11.76-21.25-.88-1.59-1.76-3.18-2.64-4.77-.96-1.73-1.87-3.6-3.91-4.23-1.72-.53-3.4.29-4.91,1.02-1.64.8-3.24,1.7-4.78,2.68-5.79,3.69-10.85,8.41-15.61,13.33s-9.3,9.84-13.03,15.48c-4.14,6.27-7.04,13.57-6.49,21.19.1,1.35,1.08,2.5,2.5,2.5,1.28,0,2.6-1.15,2.5-2.5h0Z"/>
  <path class="cls-1" d="m197.39,281.79c-6.2,30.42-10.2,61.3-11.92,92.3-.49,8.79-.79,17.6-.91,26.41-.04,3.22,4.96,3.22,5,0,.43-30.76,3.06-61.5,7.98-91.87,1.38-8.53,2.94-17.04,4.67-25.51.27-1.32-.38-2.7-1.75-3.08-1.24-.34-2.8.42-3.08,1.75h0Z"/>
  <path class="cls-1" d="m332.95,289.09c-2.16-8.99-4.06-18.04-5.68-27.15-.2-1.12-.39-2.24-.58-3.36-.1-.56-.19-1.12-.28-1.68-.04-.24-.1-1.58-.28-1.68-.14-.08-.69.57-.65.64-.01-.02.65.11.62.1,1.14.24,2.27.56,3.4.83,4.69,1.15,9.39,2.3,14.08,3.45,3.12.77,4.46-4.06,1.33-4.82-4.13-1.01-8.25-2.02-12.38-3.03-1.9-.46-3.8-1.05-5.73-1.38-1.79-.3-3.73-.09-4.87,1.49-1.29,1.78-.63,3.98-.3,5.97s.71,4.16,1.09,6.23c.72,3.99,1.5,7.97,2.33,11.94.96,4.61,1.99,9.2,3.09,13.77.75,3.13,5.57,1.8,4.82-1.33h0Z"/>
  <path class="cls-1" d="m326.59,259.06c9.86,12.66,19.73,25.31,30.15,37.51,10.38,12.14,21.31,23.85,33.23,34.49,6.76,6.03,13.83,11.71,21.22,16.94,1.1.78,2.78.2,3.42-.9.73-1.25.21-2.64-.9-3.42-12.85-9.09-24.61-19.64-35.56-30.92s-21.42-23.66-31.4-36.1c-5.61-6.99-11.12-14.07-16.63-21.14-.83-1.07-2.66-.87-3.54,0-1.05,1.05-.83,2.47,0,3.54h0Z"/>
  <path class="cls-1" d="m362.21,147.84c-.13,4.97.08,9.94.67,14.88.54,4.5,1.15,9.07,3,13.24,3.54,8,11.96,10.72,20.05,11.43,5.56.49,11.14.13,16.62-.88,1.33-.25,2.08-1.85,1.75-3.08-.38-1.4-1.74-1.99-3.08-1.75-4.25.79-8.59,1.06-12.91.86-3.65-.17-7.37-.62-10.78-2-3.09-1.25-5.52-3.37-7-6.38-1.64-3.34-2.14-7.31-2.59-10.96-.63-5.1-.86-10.23-.73-15.37.08-3.22-4.92-3.22-5,0h0Z"/>
  <path class="cls-1" d="m373.28,176.59c25.57-15.53,49.92-33.07,72.76-52.39,6.4-5.41,12.67-10.97,18.82-16.65,2.37-2.19-1.17-5.72-3.54-3.54-21.66,20.02-44.86,38.34-69.38,54.75-6.96,4.66-14.03,9.16-21.19,13.51-2.75,1.67-.24,5.99,2.52,4.32h0Z"/>
  <path class="cls-1" d="m272.45,113.68c4.13,11.96,8.25,23.92,12.38,35.88.44,1.27.81,2.58,1.85,3.51,1.21,1.08,2.83,1.23,4.36.97,2.78-.46,5.54-1.65,8.25-2.44,5.82-1.7,11.69-3.22,17.61-4.55,6.7-1.5,13.44-2.76,20.23-3.79,1.34-.2,2.07-1.88,1.75-3.08-.39-1.43-1.74-1.95-3.08-1.75-11.28,1.7-22.46,4.06-33.46,7.09-2.69.74-5.37,1.52-8.04,2.34-1.28.39-2.57.91-3.88,1.2-.05.01-.74.14-.73.09l.45.38-.05-.03c.06-.11-.41-1.19-.44-1.28-1.93-5.59-3.85-11.17-5.78-16.76-2.2-6.37-4.4-12.75-6.6-19.12-.44-1.28-1.71-2.12-3.08-1.75-1.24.34-2.19,1.79-1.75,3.08h0Z"/>
  <path class="cls-1" d="m292.39,148.93c1.92-1.78,2.29-4.31,2.54-6.79.32-3.07.62-6.13.94-9.2.62-6.13,1.25-12.27,1.87-18.4,1.23-12.1,2.46-24.2,3.7-36.3.71-6.96,1.42-13.92,2.13-20.89.14-1.35-1.25-2.5-2.5-2.5-1.47,0-2.36,1.15-2.5,2.5-2.4,23.62-4.81,47.24-7.21,70.86-.34,3.32-.68,6.63-1.01,9.95-.16,1.58-.27,3.18-.49,4.75-.13.92-.3,1.83-.99,2.48-2.37,2.19,1.17,5.72,3.54,3.54h0Z"/>
  <path class="cls-1" d="m143.92,143.26c5.77,6.02,10.94,12.57,15.41,19.62,1.14,1.8,2.24,3.64,3.29,5.49.53.94,2.31,3.02,1.2,3.97-1.36,1.16-3.34,1.68-5.04,2.08-2.1.48-4.26.77-6.39,1.09-5.26.8-10.52,1.54-15.8,2.22-1.34.17-2.5,1.03-2.5,2.5,0,1.22,1.15,2.67,2.5,2.5,5.31-.68,10.61-1.42,15.9-2.22,4.57-.69,9.79-1.03,13.71-3.76,2.15-1.5,3.45-3.62,2.88-6.31-.49-2.31-2.06-4.5-3.24-6.51-2.39-4.06-5.01-7.99-7.84-11.76-3.27-4.36-6.77-8.52-10.54-12.45-2.23-2.33-5.76,1.21-3.54,3.54h0Z"/>
  <path class="cls-1" d="m166.83,170.08c-2.99-3.3-6.92-5.45-10.97-7.18-4.69-2-9.49-3.77-14.25-5.61-9.95-3.86-19.92-7.67-29.9-11.45-19.97-7.55-40-14.94-60.09-22.16-11.28-4.05-22.58-8.05-33.9-12-1.27-.44-2.73.51-3.08,1.75-.38,1.38.47,2.63,1.75,3.08,19.92,6.95,39.79,14.07,59.6,21.34s39.4,14.66,59.01,22.22c5.44,2.1,10.89,4.2,16.32,6.34,4.36,1.72,8.77,3.67,11.98,7.21,2.17,2.39,5.7-1.16,3.54-3.54h0Z"/>
  <path class="cls-1" d="m183.55,129.28c10.17,5.59,20.61,10.66,31.3,15.17,5.33,2.25,10.7,4.38,16.13,6.35,1.26.46,2.6,1.12,3.96,1.19,1.57.08,2.84-.73,3.64-2.05,1.51-2.46,2.71-5.17,4.04-7.73,3.2-6.13,6.4-12.26,9.6-18.38,1.49-2.85-2.83-5.38-4.32-2.52-2.63,5.03-5.26,10.07-7.89,15.1-1.33,2.55-2.67,5.11-4,7.66-.3.58-.61,1.17-.91,1.75-.09.17-.91,1.5-.84,1.6-.36-.52,1.82-.09.03-.72-.74-.26-1.48-.53-2.21-.8-10.11-3.69-20.02-7.87-29.72-12.54-5.51-2.65-10.94-5.46-16.3-8.4-2.82-1.55-5.35,2.76-2.52,4.32h0Z"/>
  <path class="cls-1" d="m235.41,146.36c.77-9.82-1.65-19.53-4.76-28.76-3.14-9.32-6.81-18.48-10.87-27.44-2.28-5.03-4.7-10-7.25-14.9-1.49-2.86-5.8-.33-4.32,2.52,4.38,8.42,8.38,17.04,11.93,25.85s7.02,17.83,9.04,27.12c1.12,5.14,1.63,10.37,1.22,15.62-.11,1.35,1.22,2.5,2.5,2.5,1.44,0,2.39-1.15,2.5-2.5h0Z"/>
  <path class="cls-1" d="m100.97,205.97c13.62,9.94,28.01,18.81,43.02,26.48,4.23,2.16,8.51,4.22,12.83,6.19,1.23.56,2.69.35,3.42-.9.63-1.07.34-2.86-.9-3.42-15.34-7-30.12-15.19-44.17-24.52-3.96-2.63-7.85-5.35-11.69-8.15-1.09-.8-2.79-.18-3.42.9-.74,1.27-.2,2.62.9,3.42h0Z"/>
  <path class="cls-1" d="m157.5,235.25c-3.44,5.15-8.37,9.07-13.15,12.91s-9.87,8.02-13.69,13.18c-.8,1.09-.18,2.79.9,3.42,1.27.74,2.62.19,3.42-.9,3.68-4.98,8.72-8.81,13.51-12.66s9.77-8.11,13.33-13.44c1.79-2.68-2.53-5.19-4.32-2.52h0Z"/>
  <path class="cls-1" d="m152.11,236.56c-25.13,6.3-50.27,12.6-75.4,18.91-7.09,1.78-14.18,3.56-21.27,5.33-3.12.78-1.8,5.61,1.33,4.82,25.13-6.3,50.27-12.6,75.4-18.91l21.27-5.33c3.12-.78,1.8-5.61-1.33-4.82h0Z"/>
  <path class="cls-1" d="m259.61,299.41c.5-4.87,2.51-9.49,4.32-13.98,1.9-4.72,3.8-9.44,5.7-14.16.49-1.22.98-2.44,1.47-3.65.16-.4.79-1.41.74-1.83.26-.6-.22-.47-1.43.37.24.17.47.34.7.53,1.96,1.49,3.89,3,5.84,4.5,4.15,3.2,8.31,6.4,12.46,9.6,1.07.82,2.8.16,3.42-.9.75-1.29.18-2.59-.9-3.42-3.57-2.75-7.14-5.5-10.71-8.25-1.82-1.4-3.63-2.8-5.45-4.2-1.67-1.28-3.66-3.43-5.98-2.75s-2.75,3.13-3.51,5.02c-.86,2.13-1.72,4.26-2.57,6.39-1.68,4.18-3.37,8.36-5.05,12.54-1.86,4.61-3.54,9.21-4.05,14.18-.14,1.35,1.25,2.5,2.5,2.5,1.47,0,2.36-1.15,2.5-2.5h0Z"/>
  <path class="cls-1" d="m269.01,270.63c11.78,29.35,23.56,58.71,35.35,88.06,3.29,8.19,6.57,16.38,9.86,24.57.5,1.25,1.67,2.13,3.08,1.75,1.19-.33,2.25-1.81,1.75-3.08-11.78-29.35-23.56-58.71-35.35-88.06-3.29-8.19-6.57-16.38-9.86-24.57-.5-1.25-1.67-2.13-3.08-1.75-1.19.33-2.25,1.81-1.75,3.08h0Z"/>
  <path class="cls-1" d="m393.23,227.39c-4.52-.96-9.03-2.05-13.57-2.88-2.17-.4-4.49-.13-5.78,1.9-.98,1.55-.99,3.41-.68,5.17.64,3.69,2.12,7.36,3.62,10.77s3.45,6.92,5.66,10.08c2.53,3.62,5.41,6.98,8.64,9.99,2.35,2.19,5.9-1.34,3.54-3.54-6.07-5.65-10.98-12.61-14.06-20.34-.78-1.95-1.45-3.94-2.01-5.96-.23-.81-.52-1.72-.58-2.47-.01-.18.01-.95.02-.88-.14-.85.31.15-.1-.02-.17.08-.19.11-.08.08.16-.02.31,0,.46.04.61.07,1.23.26,1.84.39l3.91.83,7.82,1.66c3.14.67,4.48-4.15,1.33-4.82h0Z"/>
  <path class="cls-1" d="m378.33,233.16c16.3,14.83,32.99,29.23,50.05,43.17,4.86,3.97,9.75,7.9,14.66,11.79,1.06.84,2.5,1.03,3.54,0,.87-.87,1.06-2.69,0-3.54-17.27-13.68-34.19-27.82-50.7-42.41-4.7-4.15-9.37-8.34-14.01-12.56-2.38-2.16-5.92,1.36-3.54,3.54h0Z"/>
</svg>